<?xml version="1.0" standalone="yes"?>
<svg xmlns="http://www.w3.org/2000/svg" width="1200" height="270">
<path style="fill:#47714d; stroke:none;" d="M0 0L0 270L1200 270L1200 0L0 0z"/>
<path style="fill:#3f2fff; stroke:none;" d="M192 24C188.201 49.7239 166.848 69.7875 148.09 85.6613C127.572 103.023 106.983 119.964 88 139C93.2854 129.373 104.485 120.441 108.397 110.83C111.607 102.943 106.279 92.8369 110.318 85.044C114.358 77.2485 124.45 81.9328 125 72C102.18 67.7633 76.2031 71 53 71C53.1545 84.0347 70.399 75.8155 71.8912 89.0039C75.219 118.416 71.2519 149.528 71.9853 179C72.1294 184.79 72.1545 206.064 79.2438 208.248C83.4507 209.545 84.1161 199.501 85.0656 197C89.5333 185.231 99.8217 174.475 109 166.17C127.36 149.557 147.078 134.274 166 118.275C185.174 102.062 203.596 83.9821 207.56 58C209.055 48.2013 202.718 40.2369 202 31L197 24L192 24M213 211L213 204C208.787 204.15 197 201.22 197 196L194 193L185 186L186 184L181 177L163 159L154 146L152 147L152 146L181 112L179 111L152.715 131.627L116.424 162.159L102.024 175.729L99.8318 181.198L107 179.253L126 166C130.123 175.754 161.701 201.96 139 203L139 211L195 211L195 212C173.313 223.726 156.926 236.137 131 237.91C114.229 239.058 94.0825 233.458 79.7145 225.08C35.1113 199.073 13.1277 144.547 35.054 96C53.7303 54.6484 100.147 28.5042 145 37.8804C155.189 40.0103 165.342 41.8411 174 48L175 48L180 39C169.035 31.7746 155.81 28.9145 143 26.9105C130.098 24.8921 119.871 25.2573 107 27.6142C26.7092 42.3175 -9.82903 139.408 39.0363 204.09C47.0614 214.712 57.2532 224.78 69 231.23C83.6072 239.25 98.175 245.202 115 246.83C140.661 249.314 164.899 243.446 186.996 230.572C195.732 225.482 203.425 213.473 213 211M218 85L195.579 128L178 161C184.004 161 197.659 163.543 202.363 159.397C207.852 154.558 208.074 142.704 215.213 139.603C219.75 137.632 227.123 139 232 139C244.626 139 257.383 138.466 269.996 139.019C280.898 139.498 279.955 154.827 287.61 159.972C293.166 163.707 307.405 161 314 161C312.067 152.573 305.706 144.474 301.421 137L274.421 90C269.773 81.8914 265.241 68.7888 258.211 62.6034C254.354 59.2091 241.874 60.3693 237.015 61.1481C226.192 62.8831 227.381 81.7532 218 85M345 61L345 161L369 161L369 61L345 61M506 120L506 141L437 141L437 130C431.978 130.216 421.539 130.596 417.603 133.988C410.919 139.75 418.818 155.678 425.015 158.468C433.513 162.293 443.946 161 453 161C472.607 161 498.216 165.323 517 159.2C531.472 154.482 529.544 127.976 527.384 116C526.512 111.163 525.173 105.938 520.895 102.995C514.009 98.2561 502.978 99 495 99L441 99L441 79L505 79L505 90L527 86C526.684 78.6394 526.42 69.4106 519.956 64.652C513.49 59.8919 504.541 61 497 61L448 61C440.834 61 432.181 59.9861 426.105 64.652C415.75 72.6037 416.195 108.876 427.043 116.272C436.194 122.512 452.518 120 463 120L506 120M574 61L574 161L678 161L678 141L598 141L598 118L644 118L644 100L598 100L598 79L677 79L677 61L574 61M720 61L720 161L743 161L743 123C749.102 123 758.444 121.25 764 124.028C779.627 131.841 788.232 152.113 804 159.972C812.598 164.257 829.453 161 839 161C829.487 148.076 808.266 131.361 794 124C803.519 121.186 814.614 125.791 822.892 118.606C831.236 111.365 830.717 80.8221 826.852 71.0008C825.254 66.9406 821.983 64.1138 818 62.483C809.096 58.8381 796.478 61 787 61L720 61M874 61L874 161L898 161L898 123L940 123L940 104L898 104L898 79L975 79L975 61L874 61M1003 61L1003 161L1027 161L1027 61L1003 61M1055 61L1055 79L1100 79L1100 161L1124 161L1124 79L1170 79L1170 61L1055 61M209 64L205 74L214 83C216.591 75.2951 220.11 67.2112 209 64z"/>
<path style="fill:#47714d; stroke:none;" d="M743 79L743 105L786 105C790.664 105 798.743 106.51 802.566 103.258C807.54 99.0268 806.706 81.638 799.956 79.5725C783.789 74.6257 759.927 79 743 79M244 82L224 120L265 120C260.065 108.147 253.165 91.0408 244 82M87 139L88 140L87 139z"/>
<path style="fill:#3f2fff; stroke:none;" d="M228 143C227.74 154.114 224.14 168.03 219.191 178C215.408 185.619 209.084 192.717 207 201C230.247 201 237.171 163.318 238 144L228 143z"/>
<path style="fill:#47714d; stroke:none;" d="M151 144L152 145L151 144M161 156L163 158L161 156z"/>
<path style="fill:#3f2fff; stroke:none;" d="M171 157L171 160L173 160L173 157L171 157M242.667 170.333L243.333 170.667L242.667 170.333z"/>
<path style="fill:#47714d; stroke:none;" d="M184 184L185 185L184 184M196 210L196 211L206 211L196 210z"/>
</svg>
